<svg width="15" height="16" viewBox="0 0 15 16" fill="none" xmlns="http://www.w3.org/2000/svg">
<path fill-rule="evenodd" clip-rule="evenodd" d="M6.92817 0H7.85736C8.205 0.000710773 8.5444 0.10598 8.83143 0.302125C9.11846 0.498271 9.33986 0.776222 9.46684 1.09985L9.89232 2.18074L11.1842 2.92622L12.3291 2.752C12.6734 2.70014 13.0254 2.75326 13.3392 2.90442C13.6529 3.05558 13.9138 3.29777 14.0879 3.59941L14.5513 4.40059C14.7258 4.70212 14.8053 5.04931 14.7793 5.39675C14.7533 5.74419 14.623 6.07568 14.4055 6.34785L13.6825 7.25215V8.74785L14.4008 9.65215C14.6177 9.92461 14.7476 10.256 14.7736 10.6033C14.7996 10.9506 14.7205 11.2977 14.5465 11.5994L14.0843 12.4006C13.9101 12.7021 13.6492 12.9442 13.3355 13.0954C13.0218 13.2465 12.6699 13.2997 12.3255 13.248L11.1794 13.0738L9.88639 13.8204L9.46328 14.899C9.33649 15.2228 9.11518 15.501 8.82813 15.6974C8.54108 15.8938 8.20159 15.9992 7.8538 16H6.9258C6.57801 15.9992 6.23852 15.8938 5.95147 15.6974C5.66442 15.501 5.44311 15.2228 5.31632 14.899L4.89321 13.8204L3.60017 13.0738L2.4541 13.248C2.10985 13.3 1.75793 13.247 1.44421 13.0961C1.13048 12.9451 0.869503 12.7032 0.695282 12.4018L0.233059 11.5994C0.0584935 11.2979 -0.0209846 10.9507 0.00502566 10.6032C0.0310359 10.2558 0.161323 9.92432 0.378837 9.65215L1.1018 8.74785V7.25215L0.378837 6.34785C0.161439 6.07566 0.0311311 5.74426 0.00491489 5.3969C-0.0213014 5.04953 0.0577917 4.70233 0.231874 4.40059L0.694096 3.59941C0.868229 3.29756 1.12933 3.05523 1.4433 2.90406C1.75728 2.75288 2.10954 2.69989 2.4541 2.752L3.59661 2.92622L4.89321 2.17481L5.31869 1.09985C5.44539 0.776034 5.66672 0.497902 5.95381 0.301715C6.24091 0.105527 6.58045 0.000386743 6.92817 0ZM9.75721 8C9.75721 9.51348 8.90506 10.3656 7.39158 10.3656C5.8781 10.3656 5.02595 9.51348 5.02595 8C5.02595 6.48652 5.8781 5.63437 7.39158 5.63437C8.90506 5.63437 9.75721 6.48652 9.75721 8Z" fill="white" fill-opacity="0.3"/>
</svg>
