<svg width="20" height="20" viewBox="0 0 20 20" fill="none" xmlns="http://www.w3.org/2000/svg">
<path fill-rule="evenodd" clip-rule="evenodd" d="M10 20C16.4 20 20 16.4 20 10C20 3.6 16.4 0 10 0C3.6 0 0 3.6 0 10C0 16.4 3.6 20 10 20ZM15.1951 16.4697C14.8314 15.792 14.3359 15.1871 13.7317 14.6934C12.6786 13.8326 11.3603 13.3624 10.0001 13.3624C8.63997 13.3624 7.32166 13.8326 6.26854 14.6934C5.66441 15.1871 5.16887 15.792 4.80504 16.4697C5.99417 17.3244 7.68526 17.8571 10.0002 17.8571C12.315 17.8571 14.0061 17.3244 15.1951 16.4697ZM13.3644 7.52684C13.3644 9.6807 12.1529 10.8922 9.99903 10.8922C7.84519 10.8922 6.63364 9.6807 6.63364 7.52684C6.63364 5.373 7.84519 4.16146 9.99903 4.16146C12.1529 4.16146 13.3644 5.373 13.3644 7.52684Z" fill="white" fill-opacity="0.5"/>
</svg>
