<svg width="20" height="20" viewBox="0 0 20 20" fill="none" xmlns="http://www.w3.org/2000/svg">
<path d="M12.8291 9.96832C13.6586 10.4565 14.6335 10.731 15.6592 10.731C16.5201 10.731 17.3598 10.5302 18.1084 10.1666V16.6187C18.1084 18.0354 17.0774 19.2116 15.7246 19.4371V14.2818C15.7245 13.4929 15.0849 12.8531 14.2959 12.8531H12.8672C12.0784 12.8533 11.4395 13.4931 11.4395 14.2818V19.4761H4.74902C3.17109 19.4761 1.89164 18.1965 1.8916 16.6187V10.1675C2.64013 10.5309 3.48014 10.731 4.34082 10.731C5.36641 10.731 6.34045 10.4565 7.16992 9.96832C7.99946 10.4565 8.9743 10.731 10 10.731C11.0256 10.731 11.9996 10.4564 12.8291 9.96832ZM4.2959 12.8531C3.90153 12.8532 3.58203 13.1735 3.58203 13.5679V15.7105C3.58204 16.105 3.90153 16.4242 4.2959 16.4244H8.58203C8.97645 16.4243 9.29589 16.105 9.2959 15.7105V13.5679C9.2959 13.1735 8.97646 12.8532 8.58203 12.8531H4.2959ZM4.34082 1.19781C8.79061 0.576974 11.2688 0.582534 15.6592 1.19781C18.4882 2.22372 19.1961 4.88437 19.1963 5.73981C19.1963 7.51055 17.6125 8.94673 15.6592 8.94684C14.5022 8.94684 13.4744 8.44319 12.8291 7.66461C12.1838 8.44299 11.1568 8.94677 10 8.94684C8.843 8.94684 7.81524 8.44318 7.16992 7.66461C6.52465 8.44299 5.4976 8.94676 4.34082 8.94684C2.38738 8.94684 0.803711 7.51062 0.803711 5.73981C0.803935 4.88436 1.51165 2.22368 4.34082 1.19781Z" fill="white" fill-opacity="0.5"/>
<path d="M12.8291 9.96832C13.6586 10.4565 14.6335 10.731 15.6592 10.731C16.5201 10.731 17.3598 10.5302 18.1084 10.1666V16.6187C18.1084 18.0354 17.0774 19.2116 15.7246 19.4371V14.2818C15.7245 13.4929 15.0849 12.8531 14.2959 12.8531H12.8672C12.0784 12.8533 11.4395 13.4931 11.4395 14.2818V19.4761H4.74902C3.17109 19.4761 1.89164 18.1965 1.8916 16.6187V10.1675C2.64013 10.5309 3.48014 10.731 4.34082 10.731C5.36641 10.731 6.34045 10.4565 7.16992 9.96832C7.99946 10.4565 8.9743 10.731 10 10.731C11.0256 10.731 11.9996 10.4564 12.8291 9.96832ZM4.2959 12.8531C3.90153 12.8532 3.58203 13.1735 3.58203 13.5679V15.7105C3.58204 16.105 3.90153 16.4242 4.2959 16.4244H8.58203C8.97645 16.4243 9.29589 16.105 9.2959 15.7105V13.5679C9.2959 13.1735 8.97646 12.8532 8.58203 12.8531H4.2959ZM4.34082 1.19781C8.79061 0.576974 11.2688 0.582534 15.6592 1.19781C18.4882 2.22372 19.1961 4.88437 19.1963 5.73981C19.1963 7.51055 17.6125 8.94673 15.6592 8.94684C14.5022 8.94684 13.4744 8.44319 12.8291 7.66461C12.1838 8.44299 11.1568 8.94677 10 8.94684C8.843 8.94684 7.81524 8.44318 7.16992 7.66461C6.52465 8.44299 5.4976 8.94676 4.34082 8.94684C2.38738 8.94684 0.803711 7.51062 0.803711 5.73981C0.803935 4.88436 1.51165 2.22368 4.34082 1.19781Z" fill="url(#paint0_linear_1369_175)"/>
<defs>
<linearGradient id="paint0_linear_1369_175" x1="2.40612" y1="-0.716395" x2="11.0159" y2="24.1036" gradientUnits="userSpaceOnUse">
<stop stop-color="#97FCA6"/>
<stop offset="1" stop-color="#F6C90F"/>
</linearGradient>
</defs>
</svg>
