<svg width="20" height="20" viewBox="0 0 20 20" fill="none" xmlns="http://www.w3.org/2000/svg">
<path fill-rule="evenodd" clip-rule="evenodd" d="M2.53 2.53C4.21857 0.842857 6.65429 0 9.64286 0C12.6314 0 15.0671 0.842857 16.7557 2.53C18.4429 4.21857 19.2857 6.65429 19.2857 9.64286C19.2857 12.6314 18.4429 15.0671 16.7557 16.7557C15.0671 18.4429 12.6314 19.2857 9.64286 19.2857C6.65429 19.2857 4.21857 18.4429 2.53 16.7557C0.842857 15.0671 0 12.6314 0 9.64286C0 6.65429 0.842857 4.21857 2.53 2.53ZM9.04 5.64429C8.98586 5.4735 8.8816 5.32296 8.74077 5.21222C8.59993 5.10148 8.42904 5.03567 8.25031 5.02334C8.07158 5.01101 7.89327 5.05274 7.73857 5.1431C7.58387 5.23346 7.45993 5.36827 7.38286 5.53L5.98 8.48714H4.70857C4.47177 8.48714 4.24467 8.58121 4.07723 8.74865C3.90978 8.9161 3.81571 9.1432 3.81571 9.38C3.81571 9.6168 3.90978 9.8439 4.07723 10.0113C4.24467 10.1788 4.47177 10.2729 4.70857 10.2729H6.54429C6.7133 10.273 6.87887 10.2251 7.02175 10.1348C7.16463 10.0445 7.27895 9.91554 7.35143 9.76286L8.02286 8.34857L9.69714 13.6414C9.7497 13.8083 9.85011 13.956 9.9859 14.0663C10.1217 14.1766 10.2869 14.2445 10.461 14.2617C10.6351 14.2789 10.8104 14.2446 10.9651 14.163C11.1199 14.0814 11.2472 13.9562 11.3314 13.8029L13.27 10.2714H14.5771C14.8139 10.2714 15.041 10.1774 15.2085 10.0099C15.3759 9.84247 15.47 9.61537 15.47 9.37857C15.47 9.14177 15.3759 8.91467 15.2085 8.74723C15.041 8.57978 14.8139 8.48571 14.5771 8.48571H12.7414C12.5814 8.48565 12.4244 8.52857 12.2867 8.61C12.1489 8.69142 12.0356 8.80836 11.9586 8.94857L10.77 11.1114L9.04143 5.64286L9.04 5.64429Z" fill="white" fill-opacity="0.5"/>
</svg>
