<svg width="15" height="20" viewBox="0 0 15 20" fill="none" xmlns="http://www.w3.org/2000/svg">
<path d="M7.5 0C3.35766 0 0 7.32978 0 11.9931C0 16.4149 2.67037 20 7.5 20C12.3296 20 15 16.4149 15 11.9931C15 7.33 11.6421 0 7.5 0ZM12.5313 17.0938L12.4115 17.2335L12.2791 17.3611L12.0126 17.6146C11.8312 17.7787 11.6288 17.9167 11.4356 18.066C11.2273 18.1901 11.0206 18.3203 10.8072 18.4314C10.5863 18.526 10.3729 18.6441 10.1443 18.7161C9.23925 19.0339 8.28952 19.1545 7.3625 19.1007C6.43469 19.0564 5.50774 18.8299 4.67681 18.4054C3.85106 17.9757 3.12904 17.3429 2.6466 16.5634C3.2927 17.2014 4.04675 17.6814 4.85985 17.9609C5.66873 18.2517 6.52484 18.3559 7.37432 18.3333C8.22284 18.2943 9.06377 18.1667 9.82789 17.8438C10.5954 17.5373 11.2846 17.0582 11.8235 16.4332C12.3692 15.8142 12.7674 15.0599 13.0221 14.2474C13.0972 14.0478 13.141 13.8368 13.1891 13.6267C13.2456 13.4193 13.2726 13.2031 13.303 12.9887C13.3173 12.8811 13.3376 12.7743 13.3468 12.6658L13.3688 12.3385L13.3957 12.0104L13.405 11.6814C13.4059 10.8021 13.3063 9.9071 13.1343 9.02341C12.9706 8.13625 12.726 7.26038 12.4477 6.38541C12.9183 7.17012 13.2878 8.01996 13.5847 8.90007C13.8698 9.78376 14.0806 10.7039 14.1464 11.6545C14.2072 12.605 14.1346 13.5729 13.885 14.5139C13.6344 15.4531 13.1791 16.3534 12.5313 17.0938Z" fill="url(#paint0_linear_1369_189)"/>
<defs>
<linearGradient id="paint0_linear_1369_189" x1="7.5" y1="0" x2="7.5" y2="20" gradientUnits="userSpaceOnUse">
<stop stop-color="#ECBD75"/>
<stop offset="1" stop-color="#8C8C8C"/>
</linearGradient>
</defs>
</svg>
